<?xml version="1.0" encoding="iso-8859-1"?>
<!-- Generator: Adobe Illustrator 19.0.0, SVG Export Plug-In . SVG Version: 6.00 Build 0)  -->
<svg version="1.1" id="Capa_1" xmlns="http://www.w3.org/2000/svg" xmlns:xlink="http://www.w3.org/1999/xlink" x="0px" y="0px"
	 viewBox="0 0 496.547 496.547" style="enable-background:new 0 0 496.547 496.547;" xml:space="preserve">
<path id="SVGCleanerId_0" style="fill:#454545;" d="M136.456,212.348h360.029v-68.887c0-4.375-3.553-7.928-7.928-7.928H59.252
	c-13.172,0-24.56,9.216-27.307,22.094L8.673,266.744h60.245L136.456,212.348z"/>
<g>
	<path id="SVGCleanerId_0_1_" style="fill:#454545;" d="M136.456,212.348h360.029v-68.887c0-4.375-3.553-7.928-7.928-7.928H59.252
		c-13.172,0-24.56,9.216-27.307,22.094L8.673,266.744h60.245L136.456,212.348z"/>
</g>
<path style="fill:#494949;" d="M492.513,143.445v64.931H135.059l-2.389,1.924l-58.911,47.445l-6.082,4.903l-0.14,0.124H13.576
	l22.249-104.324c2.343-10.985,12.195-18.96,23.428-18.96h429.304C490.744,139.489,492.513,141.273,492.513,143.445z"/>
<path style="fill:#FFDB6F;" d="M136.456,212.348l-67.522,54.381H8.688v49.68c-4.794,0-8.688,3.894-8.688,8.688v5.787
	c0,4.794,3.894,8.688,8.688,8.688h479.868c4.375,0,7.928-3.553,7.928-7.928V212.333H136.456V212.348z"/>
<g>
	<polygon style="fill:#454545;" points="73.775,139.489 73.775,257.745 67.677,262.648 67.677,139.489 	"/>
	<polygon style="fill:#454545;" points="138.768,139.489 138.768,208.376 135.059,208.376 132.67,210.316 132.67,139.489 	"/>
	<rect x="208.415" y="139.489" style="fill:#454545;" width="6.097" height="68.887"/>
	<rect x="284.129" y="139.489" style="fill:#454545;" width="6.097" height="68.887"/>
	<rect x="359.874" y="139.489" style="fill:#454545;" width="6.097" height="68.887"/>
	<rect x="435.588" y="139.489" style="fill:#454545;" width="6.097" height="68.887"/>
</g>
<g>
	<rect x="250.228" y="262.353" style="fill:#FFCB5A;" width="75.714" height="77.219"/>
	<rect x="170.543" y="262.353" style="fill:#FFCB5A;" width="75.714" height="77.219"/>
	<rect x="75.745" y="262.353" style="fill:#FFCB5A;" width="90.841" height="77.219"/>
	<rect x="416.178" y="275.96" style="fill:#FFCB5A;" width="51.976" height="63.628"/>
	<rect x="329.899" y="262.353" style="fill:#FFCB5A;" width="82.323" height="77.219"/>
	<rect x="19.797" y="275.96" style="fill:#FFCB5A;" width="51.976" height="63.628"/>
</g>
<g>
	<polygon style="fill:#454545;" points="158.642,314.872 158.642,339.572 83.689,339.572 83.689,314.872 100.057,287.131 
		142.274,287.131 	"/>
	<polygon style="fill:#454545;" points="408.545,314.872 408.545,339.572 333.576,339.572 333.576,314.872 349.944,287.131 
		392.177,287.131 	"/>
</g>
<circle style="fill:#636363;" cx="371.06" cy="326.897" r="34.118"/>
<circle style="fill:#CACACA;" cx="371.06" cy="326.897" r="19.596"/>
<circle style="fill:#636363;" cx="121.173" cy="326.897" r="34.118"/>
<circle style="fill:#CACACA;" cx="121.173" cy="326.897" r="19.596"/>
<rect x="478.332" y="281.639" style="fill:#168DE2;" width="18.215" height="14.553"/>
<rect x="478.332" y="302.196" style="fill:#E95353;" width="18.215" height="14.553"/>
<rect x="5.989" y="322.816" style="fill:#ED6262;" width="7.587" height="10.892"/>
<path style="fill:#4E4F4F;" d="M488.557,135.533H59.252c-13.172,0-24.56,9.216-27.307,22.094l-5.275,24.731
	c2.544,1.552,5.337,2.7,8.502,2.824c10.892,0.652,20.03-8.052,20.03-18.944v3.662c0-9.138,7.618-16.105,16.989-15.888
	c0,0,0,0,0.217,0c0,0,0,0,0.217,0c9.138-0.217,16.974,6.749,16.974,15.888v0.047c0,10.457,7.618,19.596,17.858,20.247
	c10.923,0.419,19.844-8.021,20.139-18.649v-13.079c0-10.892,9.061-19.596,20.092-19.099c10.287,0.605,17.998,9.806,17.998,20.092
	v10.736c0.295,9.992,7.928,18.82,17.967,19.456c11.109,0.434,20.03-8.27,20.03-19.161l0.217-3.398
	c0-10.892,8.921-19.596,20.03-19.161c10.24,0.652,18.075,9.806,18.075,20.247v6.889c0.217,10.224,8.704,18.51,18.944,18.51
	c10.674,0,19.161-8.704,19.161-19.161v-15.639c0-8.704,7.184-15.888,16.105-15.888c11.854,0,17.408,7.028,17.408,15.019v14.445
	c0,10.442,7.618,19.596,17.858,20.247c11.109,0.434,20.247-8.27,20.247-19.161v-0.915c0-8.704,7.184-15.888,15.888-15.888
	c11.698,0,18.292,8.052,18.292,16.756v-8.239c0,10.225,7.835,19.596,18.06,20.03c10.892,0.652,20.247-8.052,20.247-18.944v3.662
	c0-9.138,7.618-16.105,16.756-15.888c0.217,0,0.217,0,0.217,0c0.217,0,0.217,0,0.434,0c9.138-0.217,16.756,6.749,16.756,15.888
	v0.047c0,10.457,7.835,19.596,18.075,20.247c11.109,0.434,20.03-8.27,20.03-19.161v-27.57
	C496.485,139.07,492.932,135.533,488.557,135.533z"/>
<g>
</g>
<g>
</g>
<g>
</g>
<g>
</g>
<g>
</g>
<g>
</g>
<g>
</g>
<g>
</g>
<g>
</g>
<g>
</g>
<g>
</g>
<g>
</g>
<g>
</g>
<g>
</g>
<g>
</g>
</svg>
