<svg xmlns="http://www.w3.org/2000/svg" xmlns:xlink="http://www.w3.org/1999/xlink" version="1.1" x="0px" y="0px" viewBox="0 0 100 125" style="enable-background:new 0 0 100 100;" xml:space="preserve"><path d="M87.7,12.5c-0.8-3.7-4.1-6.6-8.2-6.6H36.9c-4,0-7.4,2.8-8.2,6.5h-17C8,12.5,5,15.4,5,19.1v61.7c0,3.7,3,6.6,6.7,6.6h16.9  c0.7,3.9,4.1,6.8,8.2,6.8h42.7c3.8,0,7-2.5,8-5.8c4.2-0.4,7.5-3.9,7.5-8.2V20.6C95,16.5,91.8,13,87.7,12.5z M36.9,8.8h42.7  c2.5,0,4.5,1.6,5.2,3.8c-3.3,0.8-5.8,3.5-6.3,6.8H36.9c-3,0-5.4-2.4-5.4-5.3S33.9,8.8,36.9,8.8z M28.7,84.5h-17  c-2.1,0-3.8-1.7-3.8-3.7V19.1c0-2.1,1.7-3.7,3.8-3.7h16.9c0.6,4,4.1,7,8.2,7h41.4v55.5H36.9C32.8,77.8,29.4,80.7,28.7,84.5z   M79.5,91.4H36.9c-3,0-5.4-2.4-5.4-5.3s2.4-5.3,5.4-5.3h41.5c0.2,3.6,2.8,6.5,6.2,7.4C83.7,90,81.8,91.4,79.5,91.4z M92.1,80.2  c0,2.9-2.4,5.3-5.4,5.3s-5.4-2.4-5.4-5.3V20.6c0-2.9,2.4-5.3,5.4-5.3s5.4,2.4,5.4,5.3V80.2z"/></svg>